<svg xmlns="http://www.w3.org/2000/svg" xmlns:xlink="http://www.w3.org/1999/xlink" width="500" zoomAndPan="magnify" viewBox="0 0 375 374.999991" height="500" preserveAspectRatio="xMidYMid meet" version="1.0"><defs><clipPath id="id1"><path d="M 112.5 196 L 262.5 196 L 262.5 260.53125 L 112.5 260.53125 Z M 112.5 196 " clip-rule="nonzero"/></clipPath><clipPath id="id2"><path d="M 118 231 L 129 231 L 129 260.53125 L 118 260.53125 Z M 118 231 " clip-rule="nonzero"/></clipPath><clipPath id="id3"><path d="M 246 231 L 257 231 L 257 260.53125 L 246 260.53125 Z M 246 231 " clip-rule="nonzero"/></clipPath></defs><path fill="#ba8663" d="M 213.066406 154.390625 C 213.066406 165.894531 203.730469 175.222656 192.210938 175.222656 L 182.90625 175.222656 C 171.386719 175.222656 162.050781 165.894531 162.050781 154.390625 L 162.050781 148.894531 C 162.050781 137.386719 171.386719 128.0625 182.90625 128.0625 L 192.210938 128.0625 C 203.730469 128.0625 213.066406 137.386719 213.066406 148.894531 Z M 213.066406 154.390625 " fill-opacity="1" fill-rule="nonzero"/><path fill="#a57555" d="M 213.066406 159.679688 C 213.066406 171.183594 203.730469 180.507812 192.210938 180.507812 L 182.90625 180.507812 C 171.386719 180.507812 162.050781 171.1875 162.050781 159.679688 L 162.050781 154.179688 C 162.050781 142.675781 171.386719 133.351562 182.90625 133.351562 L 192.210938 133.351562 C 203.730469 133.351562 213.066406 142.675781 213.066406 154.179688 Z M 213.066406 159.679688 " fill-opacity="1" fill-rule="nonzero"/><path stroke-linecap="round" transform="matrix(1.182033, 0, 0, 1.18052, 104.816782, 105.714288)" fill="none" stroke-linejoin="round" d="M 91.579196 41.232978 C 91.579196 50.97776 83.680992 58.879472 73.935467 58.879472 L 66.0637 58.879472 C 56.318175 58.879472 48.419971 50.97776 48.419971 41.232978 L 48.419971 36.577321 C 48.419971 26.82923 56.318175 18.930827 66.0637 18.930827 L 73.935467 18.930827 C 83.680992 18.930827 91.579196 26.82923 91.579196 36.577321 Z M 91.579196 41.232978 " stroke="#33363a" stroke-width="3" stroke-opacity="1" stroke-miterlimit="10"/><path fill="#4b6466" d="M 187.558594 198.199219 L 114.316406 220.164062 L 114.316406 258.660156 L 260.796875 258.660156 L 260.796875 220.164062 Z M 187.558594 198.199219 " fill-opacity="1" fill-rule="nonzero"/><path fill="#e03636" d="M 187.558594 198.199219 L 114.316406 220.164062 L 114.316406 258.660156 L 260.796875 258.660156 L 260.796875 220.164062 Z M 187.558594 198.199219 " fill-opacity="1" fill-rule="nonzero"/><path fill="#12b2b2" d="M 187.558594 218.484375 L 114.316406 220.164062 L 114.316406 258.660156 L 260.796875 258.660156 L 260.796875 220.160156 Z M 187.558594 218.484375 " fill-opacity="1" fill-rule="nonzero"/><path fill="#c42323" d="M 187.558594 218.484375 L 114.316406 220.164062 L 114.316406 258.660156 L 260.796875 258.660156 L 260.796875 220.160156 Z M 187.558594 218.484375 " fill-opacity="1" fill-rule="nonzero"/><path fill="#33363a" d="M 114.316406 249.9375 L 260.796875 249.9375 L 260.796875 258.664062 L 114.316406 258.664062 Z M 114.316406 249.9375 " fill-opacity="1" fill-rule="nonzero"/><path fill="#33363a" d="M 114.316406 231.367188 L 260.796875 231.367188 L 260.796875 241.535156 L 114.316406 241.535156 Z M 114.316406 231.367188 " fill-opacity="1" fill-rule="nonzero"/><g clip-path="url(#id1)"><path stroke-linecap="round" transform="matrix(1.182033, 0, 0, 1.18052, 104.816782, 105.714288)" fill="none" stroke-linejoin="round" d="M 69.999583 78.342565 L 8.036684 96.948648 L 8.036684 129.558098 L 131.959178 129.558098 L 131.959178 96.948648 Z M 69.999583 78.342565 " stroke="#33363a" stroke-width="3" stroke-opacity="1" stroke-miterlimit="10"/></g><path fill="#33363a" d="M 171.402344 178.5 L 168.292969 214.992188 L 187.558594 224.578125 L 206.828125 214.992188 L 203.71875 178.5 Z M 171.402344 178.5 " fill-opacity="1" fill-rule="nonzero"/><path stroke-linecap="round" transform="matrix(1.182033, 0, 0, 1.18052, 104.816782, 105.714288)" fill="none" stroke-linejoin="round" d="M 56.331394 61.65566 L 53.700862 92.567632 L 69.999583 102.189984 L 86.301609 92.567632 L 83.671078 61.65566 Z M 56.331394 61.65566 " stroke="#33363a" stroke-width="3" stroke-opacity="1" stroke-miterlimit="10"/><path fill="#efb7a8" d="M 171.402344 178.5 L 168.292969 214.992188 L 187.558594 218.484375 L 206.828125 214.992188 L 203.71875 178.5 Z M 171.402344 178.5 " fill-opacity="1" fill-rule="nonzero"/><path fill="#e29181" d="M 203.71875 178.5 L 171.402344 178.5 L 169.628906 199.308594 L 181.976562 209.398438 C 183.597656 210.726562 185.582031 211.390625 187.558594 211.390625 C 189.539062 211.390625 191.519531 210.726562 193.140625 209.398438 L 205.492188 199.308594 Z M 203.71875 178.5 " fill-opacity="1" fill-rule="nonzero"/><path stroke-linecap="round" transform="matrix(1.182033, 0, 0, 1.18052, 104.816782, 105.714288)" fill="none" stroke-linejoin="round" d="M 56.331394 61.65566 L 53.700862 92.567632 L 69.999583 96.240538 L 86.301609 92.567632 L 83.671078 61.65566 Z M 56.331394 61.65566 " stroke="#33363a" stroke-width="3" stroke-opacity="1" stroke-miterlimit="10"/><path stroke-linecap="round" transform="matrix(1.182033, 0, 0, 1.18052, 104.816782, 105.714288)" fill-opacity="1" fill="#efb7a8" fill-rule="nonzero" stroke-linejoin="round" d="M 48.102721 56.17939 C 43.829759 56.17939 40.363142 52.711637 40.363142 48.439815 C 40.363142 44.167994 43.829759 40.700241 48.102721 40.700241 " stroke="#33363a" stroke-width="3" stroke-opacity="1" stroke-miterlimit="10"/><path stroke-linecap="round" transform="matrix(1.182033, 0, 0, 1.18052, 104.816782, 105.714288)" fill-opacity="1" fill="#e29181" fill-rule="nonzero" stroke-linejoin="round" d="M 91.896446 40.700241 C 96.169408 40.700241 99.636025 44.164685 99.636025 48.439815 C 99.636025 52.714946 96.169408 56.176081 91.896446 56.176081 " stroke="#33363a" stroke-width="3" stroke-opacity="1" stroke-miterlimit="10"/><path fill="#a57555" d="M 204.898438 145.324219 L 189.105469 142.515625 C 188.082031 142.335938 187.039062 142.335938 186.015625 142.515625 L 170.222656 145.324219 C 166.015625 146.070312 162.949219 149.722656 162.949219 153.992188 L 162.949219 179.976562 C 162.949219 182.621094 164.136719 185.117188 166.183594 186.792969 L 181.976562 199.699219 C 183.601562 201.027344 185.582031 201.6875 187.558594 201.6875 C 189.539062 201.6875 191.519531 201.027344 193.144531 199.699219 L 208.9375 186.792969 C 210.980469 185.117188 212.167969 182.621094 212.167969 179.976562 L 212.167969 153.992188 C 212.167969 149.722656 209.105469 146.070312 204.898438 145.324219 Z M 204.898438 145.324219 " fill-opacity="1" fill-rule="nonzero"/><path fill="#efb7a8" d="M 204.898438 145.324219 L 189.105469 152.96875 C 188.082031 152.789062 187.039062 152.789062 186.015625 152.96875 L 170.222656 145.324219 C 166.015625 146.070312 162.949219 149.722656 162.949219 153.992188 L 162.949219 179.976562 C 162.949219 182.621094 164.136719 185.117188 166.183594 186.792969 L 181.976562 199.699219 C 183.601562 201.027344 185.582031 201.6875 187.558594 201.6875 C 189.539062 201.6875 191.519531 201.027344 193.144531 199.699219 L 208.9375 186.792969 C 210.980469 185.117188 212.167969 182.621094 212.167969 179.976562 L 212.167969 153.992188 C 212.167969 149.722656 209.105469 146.070312 204.898438 145.324219 Z M 204.898438 145.324219 " fill-opacity="1" fill-rule="nonzero"/><path fill="#e29181" d="M 187.558594 201.6875 C 189.539062 201.6875 191.519531 201.023438 193.140625 199.695312 L 208.9375 186.792969 C 210.980469 185.117188 212.167969 182.621094 212.167969 179.976562 L 212.167969 153.992188 C 212.167969 149.722656 209.105469 146.070312 204.898438 145.324219 L 189.105469 142.515625 C 188.082031 142.335938 188.582031 142.335938 187.558594 142.515625 " fill-opacity="1" fill-rule="nonzero"/><path stroke-linecap="round" transform="matrix(1.182033, 0, 0, 1.18052, 104.816782, 105.714288)" fill="none" stroke-linejoin="round" d="M 49.180049 40.895468 L 49.180049 62.906433 C 49.180049 65.143266 50.184674 67.260978 51.916331 68.680506 L 65.277184 79.609884 C 66.64863 80.734918 68.327411 81.297435 69.999583 81.297435 C 71.67506 81.297435 73.350537 80.734918 74.721983 79.609884 L 88.086141 68.680506 C 89.814493 67.260978 90.819118 65.146575 90.819118 62.906433 L 90.819118 40.895468 " stroke="#33363a" stroke-width="3" stroke-opacity="1" stroke-miterlimit="10"/><g clip-path="url(#id2)"><path stroke-linecap="round" transform="matrix(1.182033, 0, 0, 1.18052, 104.816782, 105.714288)" fill="none" stroke-linejoin="round" d="M 13.42663 107.911114 L 18.760396 129.220588 " stroke="#33363a" stroke-width="3" stroke-opacity="1" stroke-miterlimit="10"/></g><g clip-path="url(#id3)"><path stroke-linecap="round" transform="matrix(1.182033, 0, 0, 1.18052, 104.816782, 105.714288)" fill="none" stroke-linejoin="round" d="M 121.238771 129.220588 L 126.572537 107.911114 " stroke="#33363a" stroke-width="3" stroke-opacity="1" stroke-miterlimit="10"/></g><path stroke-linecap="round" transform="matrix(1.182033, 0, 0, 1.18052, 104.816782, 105.714288)" fill="none" stroke-linejoin="round" d="M 41.562743 94.440483 L 54.398151 91.938936 " stroke="#33363a" stroke-width="3" stroke-opacity="1" stroke-miterlimit="10"/><path stroke-linecap="round" transform="matrix(1.182033, 0, 0, 1.18052, 104.816782, 105.714288)" fill="none" stroke-linejoin="round" d="M 98.436424 94.440483 L 85.60432 91.938936 " stroke="#33363a" stroke-width="3" stroke-opacity="1" stroke-miterlimit="10"/><path fill="#33363a" d="M 161.082031 148.910156 L 164.039062 132.78125 C 164.039062 126.195312 169.386719 114.949219 175.980469 119.722656 L 199.136719 119.722656 C 205.734375 114.953125 211.082031 126.195312 211.082031 132.78125 L 214.035156 148.910156 " fill-opacity="1" fill-rule="nonzero"/><path stroke-linecap="round" transform="matrix(1.182033, 0, 0, 1.18052, 104.816782, 105.714288)" fill="none" stroke-linejoin="round" d="M 47.600408 36.590557 L 50.102057 22.928008 C 50.102057 17.349161 54.626175 7.822768 60.204488 11.115148 L 79.794679 11.115148 C 85.376297 7.826077 89.900414 17.349161 89.900414 22.928008 L 92.398759 36.590557 " stroke="#33363a" stroke-width="3" stroke-opacity="1" stroke-miterlimit="10"/><path stroke-linecap="round" transform="matrix(1.182033, 0, 0, 1.18052, 104.816782, 105.714288)" fill-opacity="1" fill="#33363a" fill-rule="nonzero" stroke-linejoin="round" d="M 108.000191 37.722209 C 108.000191 38.824081 107.107925 39.714182 106.007464 39.714182 L 33.991703 39.714182 C 32.887937 39.714182 31.998976 38.820772 31.998976 37.722209 C 31.998976 36.620337 32.891242 35.730237 33.991703 35.730237 L 106.007464 35.730237 C 107.107925 35.730237 108.000191 36.620337 108.000191 37.722209 Z M 108.000191 37.722209 " stroke="#33363a" stroke-width="3" stroke-opacity="1" stroke-miterlimit="10"/><path fill="#e29181" d="M 171.042969 164.085938 C 171.042969 164.242188 171.011719 164.394531 170.953125 164.539062 C 170.890625 164.683594 170.804688 164.8125 170.695312 164.925781 C 170.582031 165.035156 170.453125 165.121094 170.308594 165.183594 C 170.164062 165.242188 170.011719 165.273438 169.851562 165.273438 C 169.695312 165.273438 169.542969 165.242188 169.398438 165.183594 C 169.253906 165.121094 169.125 165.035156 169.011719 164.925781 C 168.902344 164.8125 168.816406 164.683594 168.753906 164.539062 C 168.695312 164.394531 168.664062 164.242188 168.664062 164.085938 C 168.664062 163.925781 168.695312 163.777344 168.753906 163.628906 C 168.816406 163.484375 168.902344 163.355469 169.011719 163.246094 C 169.125 163.132812 169.253906 163.046875 169.398438 162.988281 C 169.542969 162.925781 169.695312 162.898438 169.851562 162.898438 C 170.011719 162.898438 170.164062 162.925781 170.308594 162.988281 C 170.453125 163.046875 170.582031 163.132812 170.695312 163.246094 C 170.804688 163.355469 170.890625 163.484375 170.953125 163.628906 C 171.011719 163.777344 171.042969 163.925781 171.042969 164.085938 Z M 171.042969 164.085938 " fill-opacity="1" fill-rule="nonzero"/><path fill="#e29181" d="M 173.113281 169.246094 C 173.113281 169.386719 173.0625 169.511719 172.960938 169.609375 C 172.859375 169.710938 172.738281 169.761719 172.59375 169.761719 C 172.453125 169.761719 172.328125 169.710938 172.226562 169.609375 C 172.128906 169.511719 172.078125 169.386719 172.078125 169.246094 C 172.078125 169.101562 172.128906 168.980469 172.226562 168.878906 C 172.328125 168.777344 172.453125 168.726562 172.59375 168.726562 C 172.738281 168.726562 172.859375 168.777344 172.960938 168.878906 C 173.0625 168.980469 173.113281 169.101562 173.113281 169.246094 Z M 173.113281 169.246094 " fill-opacity="1" fill-rule="nonzero"/><path fill="#e29181" d="M 180.871094 164.777344 C 180.871094 165.027344 180.824219 165.269531 180.730469 165.5 C 180.632812 165.730469 180.496094 165.933594 180.320312 166.109375 C 180.144531 166.289062 179.9375 166.421875 179.707031 166.519531 C 179.476562 166.613281 179.238281 166.664062 178.988281 166.664062 C 178.738281 166.664062 178.496094 166.613281 178.265625 166.519531 C 178.035156 166.421875 177.832031 166.289062 177.652344 166.109375 C 177.476562 165.933594 177.339844 165.730469 177.246094 165.5 C 177.148438 165.269531 177.101562 165.027344 177.101562 164.777344 C 177.101562 164.53125 177.148438 164.289062 177.246094 164.058594 C 177.339844 163.828125 177.476562 163.625 177.652344 163.449219 C 177.832031 163.269531 178.035156 163.136719 178.265625 163.039062 C 178.496094 162.945312 178.738281 162.894531 178.988281 162.894531 C 179.238281 162.894531 179.476562 162.945312 179.707031 163.039062 C 179.9375 163.136719 180.144531 163.269531 180.320312 163.449219 C 180.496094 163.625 180.632812 163.828125 180.730469 164.058594 C 180.824219 164.289062 180.871094 164.53125 180.871094 164.777344 Z M 180.871094 164.777344 " fill-opacity="1" fill-rule="nonzero"/><path fill="#e29181" d="M 180.128906 170.167969 C 180.128906 170.421875 180.039062 170.640625 179.859375 170.820312 C 179.679688 171 179.460938 171.089844 179.207031 171.089844 C 178.953125 171.089844 178.734375 171 178.554688 170.820312 C 178.375 170.640625 178.285156 170.421875 178.285156 170.167969 C 178.285156 169.914062 178.375 169.695312 178.554688 169.515625 C 178.734375 169.335938 178.953125 169.246094 179.207031 169.246094 C 179.460938 169.246094 179.679688 169.335938 179.859375 169.515625 C 180.039062 169.695312 180.128906 169.914062 180.128906 170.167969 Z M 180.128906 170.167969 " fill-opacity="1" fill-rule="nonzero"/><path fill="#e29181" d="M 171.269531 175.839844 C 171.269531 176.011719 171.238281 176.179688 171.171875 176.335938 C 171.105469 176.496094 171.011719 176.636719 170.890625 176.761719 C 170.765625 176.882812 170.625 176.976562 170.464844 177.042969 C 170.304688 177.109375 170.140625 177.140625 169.96875 177.140625 C 169.792969 177.140625 169.628906 177.109375 169.46875 177.042969 C 169.308594 176.976562 169.167969 176.882812 169.046875 176.761719 C 168.921875 176.636719 168.828125 176.496094 168.761719 176.335938 C 168.695312 176.179688 168.664062 176.011719 168.664062 175.839844 C 168.664062 175.667969 168.695312 175.5 168.761719 175.339844 C 168.828125 175.183594 168.921875 175.039062 169.046875 174.917969 C 169.167969 174.796875 169.308594 174.703125 169.46875 174.636719 C 169.628906 174.570312 169.792969 174.539062 169.96875 174.539062 C 170.140625 174.539062 170.304688 174.570312 170.464844 174.636719 C 170.625 174.703125 170.765625 174.796875 170.890625 174.917969 C 171.011719 175.039062 171.105469 175.183594 171.171875 175.339844 C 171.238281 175.5 171.269531 175.667969 171.269531 175.839844 Z M 171.269531 175.839844 " fill-opacity="1" fill-rule="nonzero"/><path fill="#e29181" d="M 177.101562 178.800781 C 177.101562 179.066406 177.007812 179.289062 176.820312 179.476562 C 176.632812 179.664062 176.40625 179.757812 176.140625 179.757812 C 175.875 179.757812 175.648438 179.664062 175.460938 179.476562 C 175.273438 179.289062 175.179688 179.066406 175.179688 178.800781 C 175.179688 178.535156 175.273438 178.308594 175.460938 178.121094 C 175.648438 177.933594 175.875 177.839844 176.140625 177.839844 C 176.40625 177.839844 176.632812 177.933594 176.820312 178.121094 C 177.007812 178.308594 177.101562 178.535156 177.101562 178.800781 Z M 177.101562 178.800781 " fill-opacity="1" fill-rule="nonzero"/><path fill="#e29181" d="M 177.101562 175.015625 C 177.101562 175.148438 177.054688 175.261719 176.960938 175.355469 C 176.867188 175.449219 176.753906 175.496094 176.621094 175.496094 C 176.488281 175.496094 176.375 175.449219 176.28125 175.355469 C 176.1875 175.261719 176.140625 175.148438 176.140625 175.015625 C 176.140625 174.882812 176.1875 174.769531 176.28125 174.679688 C 176.375 174.585938 176.488281 174.539062 176.621094 174.539062 C 176.753906 174.539062 176.867188 174.585938 176.960938 174.679688 C 177.054688 174.769531 177.101562 174.882812 177.101562 175.015625 Z M 177.101562 175.015625 " fill-opacity="1" fill-rule="nonzero"/><path fill="#e29181" d="M 176.066406 158.914062 C 176.066406 159.0625 176.039062 159.203125 175.984375 159.339844 C 175.925781 159.476562 175.847656 159.59375 175.742188 159.699219 C 175.636719 159.800781 175.519531 159.882812 175.382812 159.9375 C 175.246094 159.996094 175.105469 160.023438 174.957031 160.023438 C 174.8125 160.023438 174.671875 159.996094 174.535156 159.9375 C 174.398438 159.882812 174.277344 159.800781 174.175781 159.699219 C 174.070312 159.59375 173.992188 159.476562 173.933594 159.339844 C 173.878906 159.203125 173.851562 159.0625 173.851562 158.914062 C 173.851562 158.769531 173.878906 158.628906 173.933594 158.492188 C 173.992188 158.355469 174.070312 158.238281 174.175781 158.132812 C 174.277344 158.027344 174.398438 157.949219 174.535156 157.890625 C 174.671875 157.835938 174.8125 157.808594 174.957031 157.808594 C 175.105469 157.808594 175.246094 157.835938 175.382812 157.890625 C 175.519531 157.949219 175.636719 158.027344 175.742188 158.132812 C 175.847656 158.238281 175.925781 158.355469 175.984375 158.492188 C 176.039062 158.628906 176.066406 158.769531 176.066406 158.914062 Z M 176.066406 158.914062 " fill-opacity="1" fill-rule="nonzero"/><path fill="#e29181" d="M 183.125 183.671875 C 183.125 183.933594 183.074219 184.179688 182.976562 184.421875 C 182.875 184.660156 182.734375 184.871094 182.550781 185.054688 C 182.367188 185.238281 182.15625 185.382812 181.914062 185.480469 C 181.675781 185.578125 181.425781 185.628906 181.164062 185.628906 C 180.90625 185.628906 180.65625 185.578125 180.414062 185.480469 C 180.175781 185.382812 179.964844 185.238281 179.78125 185.054688 C 179.597656 184.871094 179.453125 184.660156 179.355469 184.421875 C 179.253906 184.179688 179.207031 183.933594 179.207031 183.671875 C 179.207031 183.414062 179.253906 183.164062 179.355469 182.921875 C 179.453125 182.683594 179.597656 182.472656 179.78125 182.289062 C 179.964844 182.105469 180.175781 181.964844 180.414062 181.863281 C 180.65625 181.765625 180.90625 181.714844 181.164062 181.714844 C 181.425781 181.714844 181.675781 181.765625 181.914062 181.863281 C 182.15625 181.964844 182.367188 182.105469 182.550781 182.289062 C 182.734375 182.472656 182.875 182.683594 182.976562 182.921875 C 183.074219 183.164062 183.125 183.414062 183.125 183.671875 Z M 183.125 183.671875 " fill-opacity="1" fill-rule="nonzero"/><path fill="#e29181" d="M 182.8125 176.320312 C 182.8125 176.546875 182.734375 176.742188 182.570312 176.902344 C 182.410156 177.0625 182.21875 177.144531 181.988281 177.144531 C 181.761719 177.144531 181.566406 177.0625 181.40625 176.902344 C 181.246094 176.742188 181.164062 176.546875 181.164062 176.320312 C 181.164062 176.09375 181.246094 175.898438 181.40625 175.738281 C 181.566406 175.578125 181.761719 175.496094 181.988281 175.496094 C 182.21875 175.496094 182.410156 175.578125 182.570312 175.738281 C 182.734375 175.898438 182.8125 176.09375 182.8125 176.320312 Z M 182.8125 176.320312 " fill-opacity="1" fill-rule="nonzero"/><path fill="#e29181" d="M 173.109375 184.707031 C 173.109375 184.84375 173.085938 184.972656 173.03125 185.101562 C 172.980469 185.226562 172.90625 185.339844 172.808594 185.4375 C 172.710938 185.53125 172.597656 185.605469 172.472656 185.660156 C 172.347656 185.710938 172.214844 185.738281 172.078125 185.738281 C 171.941406 185.738281 171.808594 185.710938 171.679688 185.660156 C 171.554688 185.605469 171.441406 185.53125 171.34375 185.4375 C 171.25 185.339844 171.171875 185.226562 171.121094 185.101562 C 171.070312 184.972656 171.042969 184.84375 171.042969 184.707031 C 171.042969 184.566406 171.070312 184.4375 171.121094 184.308594 C 171.171875 184.183594 171.25 184.070312 171.34375 183.976562 C 171.441406 183.878906 171.554688 183.804688 171.679688 183.75 C 171.808594 183.699219 171.941406 183.671875 172.078125 183.671875 C 172.214844 183.671875 172.347656 183.699219 172.472656 183.75 C 172.597656 183.804688 172.710938 183.878906 172.808594 183.976562 C 172.90625 184.070312 172.980469 184.183594 173.03125 184.308594 C 173.085938 184.4375 173.109375 184.566406 173.109375 184.707031 Z M 173.109375 184.707031 " fill-opacity="1" fill-rule="nonzero"/><path fill="#e29181" d="M 183.898438 190.929688 C 183.898438 191.195312 183.804688 191.417969 183.617188 191.605469 C 183.429688 191.789062 183.207031 191.882812 182.941406 191.882812 C 182.679688 191.882812 182.453125 191.789062 182.269531 191.605469 C 182.082031 191.417969 181.988281 191.195312 181.988281 190.929688 C 181.988281 190.667969 182.082031 190.445312 182.269531 190.257812 C 182.453125 190.070312 182.679688 189.980469 182.941406 189.980469 C 183.207031 189.980469 183.429688 190.070312 183.617188 190.257812 C 183.804688 190.445312 183.898438 190.667969 183.898438 190.929688 Z M 183.898438 190.929688 " fill-opacity="1" fill-rule="nonzero"/><path fill="#e29181" d="M 182.8125 156.417969 C 182.8125 156.644531 182.734375 156.839844 182.570312 157 C 182.410156 157.160156 182.21875 157.242188 181.988281 157.242188 C 181.761719 157.242188 181.566406 157.160156 181.40625 157 C 181.246094 156.839844 181.164062 156.644531 181.164062 156.417969 C 181.164062 156.191406 181.246094 155.996094 181.40625 155.835938 C 181.566406 155.675781 181.761719 155.597656 181.988281 155.597656 C 182.21875 155.597656 182.410156 155.675781 182.570312 155.835938 C 182.734375 155.996094 182.8125 156.191406 182.8125 156.417969 Z M 182.8125 156.417969 " fill-opacity="1" fill-rule="nonzero"/><path fill="#efb7a8" d="M 206.453125 164.085938 C 206.453125 164.242188 206.421875 164.394531 206.363281 164.539062 C 206.304688 164.683594 206.21875 164.8125 206.105469 164.925781 C 205.992188 165.035156 205.867188 165.121094 205.71875 165.183594 C 205.574219 165.242188 205.421875 165.273438 205.265625 165.273438 C 205.105469 165.273438 204.957031 165.242188 204.808594 165.183594 C 204.664062 165.121094 204.535156 165.035156 204.425781 164.925781 C 204.3125 164.8125 204.226562 164.683594 204.167969 164.539062 C 204.105469 164.394531 204.074219 164.242188 204.074219 164.085938 C 204.074219 163.925781 204.105469 163.777344 204.167969 163.628906 C 204.226562 163.484375 204.3125 163.355469 204.425781 163.246094 C 204.535156 163.132812 204.664062 163.046875 204.808594 162.988281 C 204.957031 162.925781 205.105469 162.898438 205.265625 162.898438 C 205.421875 162.898438 205.574219 162.925781 205.71875 162.988281 C 205.867188 163.046875 205.992188 163.132812 206.105469 163.246094 C 206.21875 163.355469 206.304688 163.484375 206.363281 163.628906 C 206.421875 163.777344 206.453125 163.925781 206.453125 164.085938 Z M 206.453125 164.085938 " fill-opacity="1" fill-rule="nonzero"/><path fill="#efb7a8" d="M 203.042969 169.246094 C 203.042969 169.386719 202.992188 169.511719 202.890625 169.609375 C 202.789062 169.710938 202.667969 169.761719 202.523438 169.761719 C 202.378906 169.761719 202.257812 169.710938 202.15625 169.609375 C 202.054688 169.511719 202.007812 169.386719 202.007812 169.246094 C 202.007812 169.101562 202.054688 168.980469 202.15625 168.878906 C 202.257812 168.777344 202.378906 168.726562 202.523438 168.726562 C 202.667969 168.726562 202.789062 168.777344 202.890625 168.878906 C 202.992188 168.980469 203.042969 169.101562 203.042969 169.246094 Z M 203.042969 169.246094 " fill-opacity="1" fill-rule="nonzero"/><path fill="#efb7a8" d="M 198.015625 164.777344 C 198.015625 165.027344 197.96875 165.269531 197.871094 165.5 C 197.777344 165.730469 197.640625 165.933594 197.464844 166.109375 C 197.289062 166.289062 197.082031 166.421875 196.851562 166.519531 C 196.621094 166.613281 196.382812 166.664062 196.132812 166.664062 C 195.882812 166.664062 195.640625 166.613281 195.410156 166.519531 C 195.179688 166.421875 194.976562 166.289062 194.796875 166.109375 C 194.621094 165.933594 194.484375 165.730469 194.390625 165.5 C 194.292969 165.269531 194.246094 165.027344 194.246094 164.777344 C 194.246094 164.53125 194.292969 164.289062 194.390625 164.058594 C 194.484375 163.828125 194.621094 163.625 194.796875 163.449219 C 194.976562 163.269531 195.179688 163.136719 195.410156 163.039062 C 195.640625 162.945312 195.882812 162.894531 196.132812 162.894531 C 196.382812 162.894531 196.621094 162.945312 196.851562 163.039062 C 197.082031 163.136719 197.289062 163.269531 197.464844 163.449219 C 197.640625 163.625 197.777344 163.828125 197.871094 164.058594 C 197.96875 164.289062 198.015625 164.53125 198.015625 164.777344 Z M 198.015625 164.777344 " fill-opacity="1" fill-rule="nonzero"/><path fill="#efb7a8" d="M 196.835938 170.167969 C 196.835938 170.421875 196.746094 170.640625 196.5625 170.820312 C 196.382812 171 196.167969 171.089844 195.910156 171.089844 C 195.65625 171.089844 195.4375 171 195.257812 170.820312 C 195.078125 170.640625 194.988281 170.421875 194.988281 170.167969 C 194.988281 169.914062 195.078125 169.695312 195.257812 169.515625 C 195.4375 169.335938 195.65625 169.246094 195.910156 169.246094 C 196.167969 169.246094 196.382812 169.335938 196.5625 169.515625 C 196.746094 169.695312 196.835938 169.914062 196.835938 170.167969 Z M 196.835938 170.167969 " fill-opacity="1" fill-rule="nonzero"/><path fill="#efb7a8" d="M 206.453125 175.839844 C 206.453125 176.011719 206.421875 176.179688 206.355469 176.335938 C 206.289062 176.496094 206.195312 176.636719 206.074219 176.761719 C 205.949219 176.882812 205.808594 176.976562 205.648438 177.042969 C 205.492188 177.109375 205.324219 177.140625 205.152344 177.140625 C 204.976562 177.140625 204.8125 177.109375 204.652344 177.042969 C 204.492188 176.976562 204.351562 176.882812 204.230469 176.761719 C 204.105469 176.636719 204.011719 176.496094 203.945312 176.335938 C 203.878906 176.179688 203.847656 176.011719 203.847656 175.839844 C 203.847656 175.667969 203.878906 175.5 203.945312 175.339844 C 204.011719 175.183594 204.105469 175.039062 204.230469 174.917969 C 204.351562 174.796875 204.492188 174.703125 204.652344 174.636719 C 204.8125 174.570312 204.976562 174.539062 205.152344 174.539062 C 205.324219 174.539062 205.492188 174.570312 205.648438 174.636719 C 205.808594 174.703125 205.949219 174.796875 206.074219 174.917969 C 206.195312 175.039062 206.289062 175.183594 206.355469 175.339844 C 206.421875 175.5 206.453125 175.667969 206.453125 175.839844 Z M 206.453125 175.839844 " fill-opacity="1" fill-rule="nonzero"/><path fill="#efb7a8" d="M 199.9375 178.800781 C 199.9375 179.066406 199.84375 179.289062 199.65625 179.476562 C 199.46875 179.664062 199.242188 179.757812 198.976562 179.757812 C 198.710938 179.757812 198.484375 179.664062 198.300781 179.476562 C 198.113281 179.289062 198.019531 179.066406 198.019531 178.800781 C 198.019531 178.535156 198.113281 178.308594 198.300781 178.121094 C 198.484375 177.933594 198.710938 177.839844 198.976562 177.839844 C 199.242188 177.839844 199.46875 177.933594 199.65625 178.121094 C 199.84375 178.308594 199.9375 178.535156 199.9375 178.800781 Z M 199.9375 178.800781 " fill-opacity="1" fill-rule="nonzero"/><path fill="#efb7a8" d="M 198.976562 175.015625 C 198.976562 175.148438 198.929688 175.261719 198.835938 175.355469 C 198.742188 175.449219 198.628906 175.496094 198.496094 175.496094 C 198.363281 175.496094 198.253906 175.449219 198.160156 175.355469 C 198.066406 175.261719 198.019531 175.148438 198.019531 175.015625 C 198.019531 174.882812 198.066406 174.769531 198.160156 174.679688 C 198.253906 174.585938 198.363281 174.539062 198.496094 174.539062 C 198.628906 174.539062 198.742188 174.585938 198.835938 174.679688 C 198.929688 174.769531 198.976562 174.882812 198.976562 175.015625 Z M 198.976562 175.015625 " fill-opacity="1" fill-rule="nonzero"/><path fill="#efb7a8" d="M 201.269531 158.914062 C 201.269531 159.0625 201.238281 159.203125 201.183594 159.339844 C 201.128906 159.476562 201.046875 159.59375 200.945312 159.699219 C 200.839844 159.800781 200.71875 159.882812 200.582031 159.9375 C 200.449219 159.996094 200.304688 160.023438 200.160156 160.023438 C 200.011719 160.023438 199.871094 159.996094 199.734375 159.9375 C 199.597656 159.882812 199.480469 159.800781 199.375 159.699219 C 199.273438 159.59375 199.191406 159.476562 199.136719 159.339844 C 199.078125 159.203125 199.050781 159.0625 199.050781 158.914062 C 199.050781 158.769531 199.078125 158.628906 199.136719 158.492188 C 199.191406 158.355469 199.273438 158.238281 199.375 158.132812 C 199.480469 158.027344 199.597656 157.949219 199.734375 157.890625 C 199.871094 157.835938 200.011719 157.808594 200.160156 157.808594 C 200.304688 157.808594 200.449219 157.835938 200.582031 157.890625 C 200.71875 157.949219 200.839844 158.027344 200.945312 158.132812 C 201.046875 158.238281 201.128906 158.355469 201.183594 158.492188 C 201.238281 158.628906 201.269531 158.769531 201.269531 158.914062 Z M 201.269531 158.914062 " fill-opacity="1" fill-rule="nonzero"/><path fill="#efb7a8" d="M 195.914062 183.671875 C 195.914062 183.933594 195.863281 184.179688 195.761719 184.421875 C 195.664062 184.660156 195.523438 184.871094 195.339844 185.054688 C 195.15625 185.238281 194.941406 185.382812 194.703125 185.480469 C 194.460938 185.578125 194.210938 185.628906 193.953125 185.628906 C 193.691406 185.628906 193.441406 185.578125 193.203125 185.480469 C 192.960938 185.382812 192.75 185.238281 192.566406 185.054688 C 192.382812 184.871094 192.242188 184.660156 192.140625 184.421875 C 192.042969 184.179688 191.992188 183.933594 191.992188 183.671875 C 191.992188 183.414062 192.042969 183.164062 192.140625 182.921875 C 192.242188 182.683594 192.382812 182.472656 192.566406 182.289062 C 192.75 182.105469 192.960938 181.964844 193.203125 181.863281 C 193.441406 181.765625 193.691406 181.714844 193.953125 181.714844 C 194.210938 181.714844 194.460938 181.765625 194.703125 181.863281 C 194.941406 181.964844 195.15625 182.105469 195.339844 182.289062 C 195.523438 182.472656 195.664062 182.683594 195.761719 182.921875 C 195.863281 183.164062 195.914062 183.414062 195.914062 183.671875 Z M 195.914062 183.671875 " fill-opacity="1" fill-rule="nonzero"/><path fill="#efb7a8" d="M 193.953125 176.320312 C 193.953125 176.546875 193.871094 176.742188 193.710938 176.902344 C 193.550781 177.0625 193.355469 177.144531 193.128906 177.144531 C 192.902344 177.144531 192.707031 177.0625 192.546875 176.902344 C 192.386719 176.742188 192.304688 176.546875 192.304688 176.320312 C 192.304688 176.09375 192.386719 175.898438 192.546875 175.738281 C 192.707031 175.578125 192.902344 175.496094 193.128906 175.496094 C 193.355469 175.496094 193.550781 175.578125 193.710938 175.738281 C 193.871094 175.898438 193.953125 176.09375 193.953125 176.320312 Z M 193.953125 176.320312 " fill-opacity="1" fill-rule="nonzero"/><path fill="#efb7a8" d="M 204.074219 184.707031 C 204.074219 184.84375 204.050781 184.972656 203.996094 185.101562 C 203.945312 185.226562 203.871094 185.339844 203.773438 185.4375 C 203.675781 185.53125 203.5625 185.605469 203.4375 185.660156 C 203.308594 185.710938 203.179688 185.738281 203.042969 185.738281 C 202.902344 185.738281 202.773438 185.710938 202.644531 185.660156 C 202.519531 185.605469 202.40625 185.53125 202.308594 185.4375 C 202.214844 185.339844 202.136719 185.226562 202.085938 185.101562 C 202.035156 184.972656 202.007812 184.84375 202.007812 184.707031 C 202.007812 184.566406 202.035156 184.4375 202.085938 184.308594 C 202.136719 184.183594 202.214844 184.070312 202.308594 183.976562 C 202.40625 183.878906 202.519531 183.804688 202.644531 183.75 C 202.773438 183.699219 202.902344 183.671875 203.042969 183.671875 C 203.179688 183.671875 203.308594 183.699219 203.4375 183.75 C 203.5625 183.804688 203.675781 183.878906 203.773438 183.976562 C 203.871094 184.070312 203.945312 184.183594 203.996094 184.308594 C 204.050781 184.4375 204.074219 184.566406 204.074219 184.707031 Z M 204.074219 184.707031 " fill-opacity="1" fill-rule="nonzero"/><path fill="#efb7a8" d="M 193.128906 190.929688 C 193.128906 191.195312 193.035156 191.417969 192.847656 191.605469 C 192.664062 191.789062 192.4375 191.882812 192.175781 191.882812 C 191.910156 191.882812 191.6875 191.789062 191.5 191.605469 C 191.3125 191.417969 191.222656 191.195312 191.222656 190.929688 C 191.222656 190.667969 191.3125 190.445312 191.5 190.257812 C 191.6875 190.070312 191.910156 189.980469 192.175781 189.980469 C 192.4375 189.980469 192.664062 190.070312 192.847656 190.257812 C 193.035156 190.445312 193.128906 190.667969 193.128906 190.929688 Z M 193.128906 190.929688 " fill-opacity="1" fill-rule="nonzero"/><path fill="#efb7a8" d="M 193.953125 156.417969 C 193.953125 156.644531 193.871094 156.839844 193.710938 157 C 193.550781 157.160156 193.355469 157.242188 193.128906 157.242188 C 192.902344 157.242188 192.707031 157.160156 192.546875 157 C 192.386719 156.839844 192.304688 156.644531 192.304688 156.417969 C 192.304688 156.191406 192.386719 155.996094 192.546875 155.835938 C 192.707031 155.675781 192.902344 155.597656 193.128906 155.597656 C 193.355469 155.597656 193.550781 155.675781 193.710938 155.835938 C 193.871094 155.996094 193.953125 156.191406 193.953125 156.417969 Z M 193.953125 156.417969 " fill-opacity="1" fill-rule="nonzero"/></svg>