<svg xmlns="http://www.w3.org/2000/svg" xmlns:xlink="http://www.w3.org/1999/xlink" width="454" zoomAndPan="magnify" viewBox="0 0 340.5 374.999991" height="500" preserveAspectRatio="xMidYMid meet" version="1.0"><defs><clipPath id="bcdb237c44"><path d="M 0.136719 0.273438 L 340 0.273438 L 340 374.722656 L 0.136719 374.722656 Z M 0.136719 0.273438 " clip-rule="nonzero"/></clipPath></defs><g clip-path="url(#bcdb237c44)"><path fill="#000000" d="M 117.207031 31.039062 L 200.96875 31.039062 C 205.707031 31.039062 210.371094 31.34375 214.953125 31.941406 C 225.789062 33.347656 236.132812 36.371094 245.742188 40.753906 C 283.265625 57.871094 309.507812 95.765625 309.507812 139.484375 C 309.507812 145.835938 308.953125 152.066406 307.890625 158.125 C 305.988281 168.996094 302.445312 179.324219 297.535156 188.847656 C 286.34375 210.546875 268.035156 228.050781 245.742188 238.21875 C 236.132812 242.601562 225.789062 245.621094 214.953125 247.03125 C 210.371094 247.625 205.707031 247.933594 200.96875 247.933594 L 86.417969 247.933594 L 86.417969 344.511719 L 31.265625 344.511719 L 31.265625 191.917969 L 52.828125 175.691406 L 86.417969 150.414062 L 86.417969 206.457031 L 245.742188 206.457031 L 245.742188 111.355469 L 214.953125 88.1875 L 166.441406 51.683594 L 117.210938 88.730469 L 117.210938 31.039062 Z M 86.417969 111.902344 L 31.265625 153.402344 L 1.648438 175.691406 L 0.476562 176.574219 L 0.476562 375.273438 L 117.210938 375.273438 L 117.210938 278.699219 L 200.96875 278.699219 C 205.6875 278.699219 210.351562 278.460938 214.953125 277.996094 C 225.605469 276.921875 235.917969 274.636719 245.742188 271.28125 C 278.375 260.128906 305.652344 237.160156 322.390625 207.546875 C 327.566406 198.390625 331.734375 188.601562 334.742188 178.328125 C 338.355469 165.988281 340.296875 152.953125 340.296875 139.484375 C 340.296875 78.550781 300.582031 26.429688 245.742188 7.691406 C 235.917969 4.335938 225.605469 2.046875 214.953125 0.976562 C 210.351562 0.511719 205.6875 0.273438 200.96875 0.273438 L 86.417969 0.273438 Z M 214.953125 126.699219 L 214.953125 175.691406 L 117.207031 175.691406 L 117.207031 127.246094 L 166.441406 90.195312 Z M 214.953125 126.699219 " fill-opacity="1" fill-rule="evenodd"/></g></svg>