<svg xmlns="http://www.w3.org/2000/svg" xmlns:xlink="http://www.w3.org/1999/xlink" width="500" zoomAndPan="magnify" viewBox="0 0 375 374.999991" height="500" preserveAspectRatio="xMidYMid meet" version="1.0"><defs><g/><clipPath id="id1"><path d="M 0 0 L 375 0 L 375 129 L 0 129 Z M 0 0 " clip-rule="nonzero"/></clipPath><clipPath id="id2"><path d="M 0 246.269531 L 375 246.269531 L 375 375 L 0 375 Z M 0 246.269531 " clip-rule="nonzero"/></clipPath></defs><g clip-path="url(#id1)"><path fill="#000000" d="M 187.5 375 C 84.144531 375 0 290.855469 0 187.5 C 0 84.144531 84.144531 0 187.5 0 C 290.855469 0 375 84.144531 375 187.5 C 375 290.855469 290.855469 375 187.5 375 Z M 187.5 2.769531 C 85.621094 2.769531 2.769531 85.621094 2.769531 187.5 C 2.769531 289.378906 85.621094 372.230469 187.5 372.230469 C 289.378906 372.230469 372.230469 289.378906 372.230469 187.5 C 372.230469 85.621094 289.378906 2.769531 187.5 2.769531 Z M 187.5 2.769531 " fill-opacity="1" fill-rule="nonzero"/></g><g fill="#000000" fill-opacity="1"><g transform="translate(-1.697828, 240.880763)"><g><path d="M 22.089844 -51.335938 L 22.089844 -93.378906 L 46.15625 -93.378906 C 52.402344 -93.378906 57.429688 -91.398438 61.238281 -87.589844 C 64.894531 -83.628906 66.875 -78.753906 66.875 -72.664062 C 66.875 -66.417969 64.894531 -61.390625 60.933594 -57.277344 C 56.972656 -53.316406 52.097656 -51.335938 46.15625 -51.335938 Z M 77.535156 -72.359375 C 77.535156 -81.496094 74.1875 -88.960938 67.789062 -94.902344 C 61.390625 -100.691406 53.773438 -103.585938 44.632812 -103.585938 L 11.425781 -103.585938 L 11.425781 0 L 22.089844 0 L 22.089844 -40.976562 L 44.632812 -40.976562 C 53.773438 -40.976562 61.542969 -43.871094 67.789062 -49.660156 C 74.1875 -55.753906 77.535156 -63.21875 77.535156 -72.359375 Z M 77.535156 -72.359375 "/></g></g></g><g fill="#000000" fill-opacity="1"><g transform="translate(89.547486, 240.880763)"><g><path d="M 20.261719 1.523438 C 22.546875 1.523438 24.679688 0.761719 26.503906 -0.914062 C 28.332031 -2.589844 29.246094 -4.570312 29.246094 -7.007812 C 29.246094 -9.445312 28.332031 -11.425781 26.503906 -13.101562 C 24.679688 -14.777344 22.699219 -15.691406 20.261719 -15.691406 C 17.824219 -15.691406 15.691406 -14.777344 14.015625 -13.101562 C 12.1875 -11.273438 11.425781 -9.292969 11.425781 -7.007812 C 11.425781 -4.570312 12.1875 -2.589844 14.015625 -0.914062 C 15.84375 0.761719 17.824219 1.523438 20.261719 1.523438 Z M 20.261719 1.523438 "/></g></g></g><g fill="#000000" fill-opacity="1"><g transform="translate(140.882743, 240.880763)"><g><path d="M 22.089844 -76.316406 L 80.277344 6.398438 L 80.277344 -103.585938 L 69.617188 -103.585938 L 69.617188 -27.417969 L 11.425781 -110.136719 L 11.425781 0 L 22.089844 0 Z M 22.089844 -76.316406 "/></g></g></g><g fill="#000000" fill-opacity="1"><g transform="translate(243.248024, 240.880763)"><g><path d="M 20.261719 1.523438 C 22.546875 1.523438 24.679688 0.761719 26.503906 -0.914062 C 28.332031 -2.589844 29.246094 -4.570312 29.246094 -7.007812 C 29.246094 -9.445312 28.332031 -11.425781 26.503906 -13.101562 C 24.679688 -14.777344 22.699219 -15.691406 20.261719 -15.691406 C 17.824219 -15.691406 15.691406 -14.777344 14.015625 -13.101562 C 12.1875 -11.273438 11.425781 -9.292969 11.425781 -7.007812 C 11.425781 -4.570312 12.1875 -2.589844 14.015625 -0.914062 C 15.84375 0.761719 17.824219 1.523438 20.261719 1.523438 Z M 20.261719 1.523438 "/></g></g></g><g fill="#000000" fill-opacity="1"><g transform="translate(294.583281, 240.880763)"><g><path d="M 79.058594 -28.789062 C 79.058594 -36.101562 77.230469 -42.347656 73.730469 -47.222656 C 70.074219 -52.097656 65.199219 -55.449219 59.257812 -57.125 C 62.761719 -58.648438 65.808594 -61.390625 68.09375 -65.503906 C 69.160156 -67.332031 69.921875 -69.160156 70.53125 -71.140625 C 71.140625 -73.121094 71.445312 -75.859375 71.445312 -79.363281 C 71.445312 -82.714844 70.53125 -86.21875 69.007812 -89.570312 C 64.4375 -98.863281 54.535156 -103.585938 39.453125 -103.585938 L 11.425781 -103.585938 L 11.425781 0 L 43.109375 0 C 53.621094 0 62 -2.285156 68.398438 -7.160156 C 71.597656 -9.597656 74.1875 -12.796875 76.164062 -16.757812 C 77.992188 -20.566406 79.058594 -24.527344 79.058594 -28.789062 Z M 60.78125 -77.6875 C 60.78125 -72.054688 59.105469 -67.941406 55.753906 -65.199219 C 52.402344 -62.457031 47.984375 -61.085938 42.5 -61.085938 L 22.089844 -61.085938 L 22.089844 -93.378906 L 39.453125 -93.378906 C 53.621094 -93.378906 60.78125 -88.046875 60.78125 -77.6875 Z M 68.398438 -30.921875 C 68.398438 -24.679688 66.265625 -19.652344 62 -15.84375 C 57.886719 -12.035156 52.554688 -10.207031 46.15625 -10.207031 L 22.089844 -10.207031 L 22.089844 -50.421875 L 47.832031 -50.421875 C 53.164062 -50.421875 57.886719 -48.59375 62 -44.9375 C 63.828125 -43.261719 65.351562 -41.28125 66.570312 -38.996094 C 67.789062 -36.558594 68.398438 -33.96875 68.398438 -30.921875 Z M 68.398438 -30.921875 "/></g></g></g><g clip-path="url(#id2)"><path fill="#000000" d="M 187.5 375 C 84.144531 375 0 290.855469 0 187.5 C 0 84.144531 84.144531 0 187.5 0 C 290.855469 0 375 84.144531 375 187.5 C 375 290.855469 290.855469 375 187.5 375 Z M 187.5 2.769531 C 85.621094 2.769531 2.769531 85.621094 2.769531 187.5 C 2.769531 289.378906 85.621094 372.230469 187.5 372.230469 C 289.378906 372.230469 372.230469 289.378906 372.230469 187.5 C 372.230469 85.621094 289.378906 2.769531 187.5 2.769531 Z M 187.5 2.769531 " fill-opacity="1" fill-rule="nonzero"/></g></svg>